<svg width="289" height="289" viewBox="0 0 289 289" fill="none" xmlns="http://www.w3.org/2000/svg">
<path d="M216.028 76.4578H182.504L185.249 70.2935H218.773L216.028 76.4578Z" fill="#D90429"/>
<path d="M116.996 89.3675H83.4719L86.2174 83.2031H119.741L116.996 89.3675Z" fill="#D90429"/>
<path d="M147.896 108.768L132.483 124.111C132.483 124.111 105.196 213.929 109.531 258.143L103.187 263.955L134.385 271.371L154.904 164.253L147.896 108.768Z" fill="#D90429"/>
<path d="M138.431 221.571C138.423 228.035 139.021 234.485 140.217 240.838L153.91 169.389C144.402 182.258 138.431 200.855 138.431 221.571Z" fill="black"/>
<path d="M139.914 123.403L179.905 121.085V164.441V271.371H148.474L151.797 265.415L139.914 123.403Z" fill="#D90429"/>
<path d="M138.466 52.335V57.6757C138.464 59.6827 139.136 61.6322 140.374 63.2117C141.613 64.7911 143.345 65.909 145.295 66.3862L153.794 68.4757V47.5925L146.728 45.8585C145.746 45.617 144.721 45.6021 143.732 45.815C142.743 46.0278 141.816 46.4628 141.02 47.087C140.224 47.7113 139.58 48.5084 139.138 49.4181C138.695 50.3278 138.465 51.3263 138.466 52.3379V52.335Z" fill="#EDEEEF"/>
<path d="M138.466 57.6757C138.464 59.6827 139.136 61.6322 140.374 63.2117C141.613 64.7911 143.345 65.909 145.295 66.3862L153.794 68.4757" stroke="black" stroke-width="2" stroke-miterlimit="10"/>
<path d="M147.124 56.6151C147.351 56.6151 147.535 56.4314 147.535 56.2047C147.535 55.9781 147.351 55.7943 147.124 55.7943C146.897 55.7943 146.714 55.9781 146.714 56.2047C146.714 56.4314 146.897 56.6151 147.124 56.6151Z" fill="black"/>
<path d="M140.83 56.6151C141.056 56.6151 141.24 56.4314 141.24 56.2047C141.24 55.9781 141.056 55.7943 140.83 55.7943C140.603 55.7943 140.419 55.9781 140.419 56.2047C140.419 56.4314 140.603 56.6151 140.83 56.6151Z" fill="black"/>
<path d="M142.676 58.6497V52.335H139.512" stroke="black" stroke-width="2" stroke-miterlimit="10"/>
<path d="M147.896 52.335H144.731" stroke="black" stroke-width="2" stroke-miterlimit="10"/>
<path d="M152.786 55.5718V57.7653C153.354 57.7646 153.899 57.5383 154.3 57.1362C154.702 56.7342 154.927 56.1892 154.927 55.6209C154.927 55.5545 154.927 55.4909 154.927 55.4273C154.8 54.095 152.786 54.2337 152.786 55.5718Z" fill="#EDEEEF"/>
<path d="M152.786 57.7653C153.354 57.7646 153.899 57.5383 154.3 57.1362C154.702 56.7342 154.927 56.1892 154.927 55.6209" stroke="black" stroke-width="2" stroke-miterlimit="10"/>
<path d="M144.408 59.3895C144.674 59.6546 145.035 59.8034 145.41 59.8034C145.786 59.8034 146.147 59.6546 146.413 59.3895" stroke="#D90429" stroke-width="2" stroke-miterlimit="10"/>
<path d="M142.676 58.6554L144.061 58.9965" stroke="black" stroke-width="2" stroke-miterlimit="10" stroke-linecap="round"/>
<path d="M138.142 51.5576C138.142 51.5576 142.044 54.0603 149.511 48.763C149.511 48.763 149.318 54.5141 152.497 55.4909" stroke="black" stroke-width="2" stroke-miterlimit="10"/>
<path d="M138.466 53.387C138.466 53.387 136.154 52.1818 136.116 49.5346C136.116 49.5346 142.812 38.3098 151.82 44.3788C151.82 44.3788 156.924 45.6331 157.311 51.8466C157.699 58.0601 153.794 61.3345 153.794 61.3345" stroke="black" stroke-width="2" stroke-miterlimit="10"/>
<path d="M154.277 44.0436C154.468 44.0436 156.546 45.006 157.337 47.029" stroke="#D90429" stroke-width="2" stroke-miterlimit="10"/>
<path d="M155.806 43.1766C155.806 43.1766 158.225 37.5873 163.282 40.4773C168.34 43.3673 167.715 51.5576 167.715 51.5576L160.297 53.2425C160.297 53.2425 160.253 44.7603 157.745 45.6591" stroke="black" stroke-width="2" stroke-miterlimit="10"/>
<path d="M132.483 90.6362V124.114L179.905 135.769V98.4883C179.905 92.0644 177.751 85.826 173.788 80.7703C169.824 75.7147 164.281 72.1337 158.043 70.5998C155.004 69.8531 151.836 69.8071 148.777 70.4654C145.718 71.1237 142.849 72.469 140.386 74.3996C137.924 76.3301 135.933 78.7953 134.564 81.6088C133.195 84.4222 132.483 87.5102 132.483 90.6391V90.6362Z" fill="#EDEEEF"/>
<path d="M151.797 265.415L139.914 123.403" stroke="black" stroke-width="2" stroke-miterlimit="10"/>
<path d="M169.12 76.0532C169.12 76.0532 183.226 84.3273 192.474 102.245C192.474 102.245 187.356 82.8158 190.633 77.4231C193.91 72.0304 194.292 76.0532 194.292 76.0532C194.292 76.0532 201.999 70.2935 203.349 73.1835C204.699 76.0735 199.699 80.8911 199.699 80.8911C199.699 80.8911 216.606 108.577 202.973 118.973C186.211 131.755 167.738 105.167 167.738 105.167" stroke="black" stroke-width="2" stroke-miterlimit="10"/>
<path d="M139.009 75.5677C139.009 75.5677 129.183 88.3849 123.114 108.768C123.114 108.768 111.265 87.5381 105.196 87.2491C99.127 86.9601 103.187 89.8501 103.187 89.8501C103.187 89.8501 93.925 85.5151 92.191 88.9831C90.457 92.4511 103.187 97.4103 103.187 97.4103C103.187 97.4103 103.751 121.929 112.999 130.021C120.117 136.249 126.55 134.356 131.77 128.576" stroke="black" stroke-width="2" stroke-miterlimit="10"/>
</svg>
