<svg id="visual" viewBox="0 0 900 600" width="900" height="600" xmlns="http://www.w3.org/2000/svg" xmlns:xlink="http://www.w3.org/1999/xlink" version="1.1"><rect width="900" height="600" fill="#EDF2F4"></rect><g><g transform="translate(385 263)"><path d="M0 -129.5L123.2 -40L76.1 104.8L-76.1 104.8L-123.2 -40Z" fill="none" stroke="#EF233C" stroke-width="16"></path></g><g transform="translate(690 248)"><path d="M0 -81L77 -25L47.6 65.5L-47.6 65.5L-77 -25Z" fill="none" stroke="#EF233C" stroke-width="16"></path></g><g transform="translate(90 561)"><path d="M0 -91L86.5 -28.1L53.5 73.6L-53.5 73.6L-86.5 -28.1Z" fill="none" stroke="#EF233C" stroke-width="16"></path></g><g transform="translate(24 149)"><path d="M0 -118L112.2 -36.5L69.4 95.5L-69.4 95.5L-112.2 -36.5Z" fill="none" stroke="#EF233C" stroke-width="16"></path></g><g transform="translate(581 579)"><path d="M0 -73L69.4 -22.6L42.9 59.1L-42.9 59.1L-69.4 -22.6Z" stroke="#EF233C" fill="none" stroke-width="16"></path></g><g transform="translate(896 490)"><path d="M0 -114L108.4 -35.2L67 92.2L-67 92.2L-108.4 -35.2Z" stroke="#EF233C" fill="none" stroke-width="16"></path></g><g transform="translate(874 32)"><path d="M0 -102L97 -31.5L60 82.5L-60 82.5L-97 -31.5Z" stroke="#EF233C" fill="none" stroke-width="16"></path></g><g transform="translate(562 3)"><path d="M0 -118L112.2 -36.5L69.4 95.5L-69.4 95.5L-112.2 -36.5Z" stroke="#EF233C" fill="none" stroke-width="16"></path></g></g></svg>