<svg width="201" height="267" viewBox="0 0 201 267" fill="none" xmlns="http://www.w3.org/2000/svg">
<path d="M131.607 140H162.393C167.147 140 171 143.806 171 148.5V148.5C171 153.194 167.147 157 162.393 157H131.607C126.853 157 123 153.194 123 148.5C123 143.806 126.853 140 131.607 140Z" fill="#D90429"/>
<path d="M132 157H162" stroke="black" stroke-width="1.5" stroke-linecap="round" stroke-linejoin="round"/>
<path d="M186 266H105" stroke="black" stroke-width="1.5" stroke-linecap="round" stroke-linejoin="round"/>
<path d="M147 157V266" stroke="black" stroke-width="1.5" stroke-linecap="round" stroke-linejoin="round"/>
<path d="M83.6806 106C83.6806 106 29.4424 124.018 8.98242 186.003L0 190.002L28.9434 199L75.8516 148.325L109 126.222" fill="#E2E2E2"/>
<path d="M63.4082 213.163C49.0027 113.941 98.9255 110 98.9255 110L122 148.229L99.1453 147.24L92.8823 224L59 220.861L63.4082 213.163Z" fill="#EDEEEF"/>
<path d="M63.6013 213C49.2439 113.935 99 110 99 110" stroke="black" stroke-width="1.5" stroke-linecap="round" stroke-linejoin="round"/>
<path d="M110.465 97L164.956 110.244C164.956 110.244 168.56 151.58 110.465 147.749L79 104.191L110.465 97Z" fill="#EDEEEF"/>
<path d="M111 148L79 104" stroke="black" stroke-width="1.5" stroke-linecap="round" stroke-linejoin="round"/>
<path d="M164.957 110C164.957 110 168.525 151.603 111 147.748" stroke="black" stroke-width="1.5" stroke-linecap="round" stroke-linejoin="round"/>
<path d="M149 14.6023V20.6897C149 22.977 148.21 25.1982 146.756 26.9982C145.302 28.7983 143.268 30.0732 140.98 30.6191L131 33V9.19943L139.298 7.21972C140.452 6.94458 141.654 6.92762 142.815 7.17011C143.976 7.4126 145.065 7.90821 146 8.61942C146.935 9.33064 147.69 10.2389 148.21 11.2754C148.73 12.3119 149 13.4495 149 14.6023V14.6023Z" fill="#EDEEEF"/>
<path d="M149 20C149 22.4154 148.21 24.7611 146.756 26.662C145.302 28.5628 143.268 29.9092 140.98 30.4857L131 33" stroke="black" stroke-width="1.5" stroke-linecap="round" stroke-linejoin="round"/>
<path d="M138.5 19C138.224 19 138 18.7761 138 18.5C138 18.2239 138.224 18 138.5 18C138.776 18 139 18.2239 139 18.5C139 18.7761 138.776 19 138.5 19Z" fill="black"/>
<path d="M145.5 19C145.224 19 145 18.7761 145 18.5C145 18.2239 145.224 18 145.5 18C145.776 18 146 18.2239 146 18.5C146 18.7761 145.776 19 145.5 19Z" fill="black"/>
<path d="M144 21V14H147" stroke="black" stroke-width="1.5" stroke-linecap="round" stroke-linejoin="round"/>
<path d="M138 14H141" stroke="black" stroke-width="1.5" stroke-linecap="round" stroke-linejoin="round"/>
<path d="M132 17.9864V20C131.47 20 130.961 19.7928 130.586 19.424C130.211 19.0551 130 18.5549 130 18.0333C130 17.973 130.003 17.9133 130.008 17.8543C130.12 16.6331 132 16.7602 132 17.9864Z" fill="#EDEEEF"/>
<path d="M132 20C131.47 20 130.961 19.7893 130.586 19.4142C130.211 19.0391 130 18.5304 130 18" stroke="black" stroke-width="1.5" stroke-linecap="round" stroke-linejoin="round"/>
<path d="M142 22C141.869 22.317 141.713 22.5685 141.541 22.7401C141.37 22.9117 141.186 23 141 23C140.814 23 140.63 22.9117 140.459 22.7401C140.287 22.5685 140.131 22.317 140 22" stroke="#D90429" stroke-width="1.5" stroke-linecap="round" stroke-linejoin="round"/>
<path d="M144 21L142 22" stroke="black" stroke-width="1.5" stroke-linecap="round" stroke-linejoin="round"/>
<path d="M149 12L135.244 12.5882C135.244 12.5882 134.457 16.5723 132 17" stroke="#D90429" stroke-width="1.5" stroke-linecap="round" stroke-linejoin="round"/>
<path d="M148.86 23.3017L155 21.2886C155 21.2886 154.671 -2.18064 134.936 1.36473C134.936 1.36473 122.438 1.87249 121.122 15.5C119.806 29.1275 120.012 30 120.012 30L130.91 27.401" stroke="#D90429" stroke-width="1.5" stroke-linecap="round" stroke-linejoin="round"/>
<path d="M111 58.532V96.7078L165 110V67.4826C165 60.1568 162.547 53.0425 158.034 47.2772C153.521 41.512 147.208 37.4286 140.105 35.6801H140.105C136.645 34.8285 133.037 34.7759 129.554 35.5266C126.071 36.2772 122.804 37.8112 120 40.0127C117.196 42.2142 114.929 45.0255 113.369 48.2339C111.81 51.4423 111 54.9637 111 58.5319V58.532Z" fill="#D90429"/>
<path d="M149.572 39C149.572 39 185.423 60.6888 198.307 93.3277C211.191 125.967 146.323 105.893 146.323 105.893C146.323 105.893 135.773 106.591 131.809 101.563L127 101.08L127.569 98.7727L167.654 89.8454L149.066 72.5443" stroke="black" stroke-width="1.5" stroke-linecap="round" stroke-linejoin="round"/>
<path d="M167 89.6551L152.691 93C163.13 88.894 152.003 75.0034 152 75L167 89.6551Z" fill="black"/>
<path d="M144 95C144.456 94.6263 145.711 94.2868 148 94L144 95Z" fill="black"/>
<path d="M115 44.3224L98.8101 68.9C98.8101 68.9 93.4068 39.6634 85.8922 37.0056C78.3776 34.3477 74.8413 33 74.8413 33L74 35.6598L77.4935 39.2604C77.4935 39.2604 74.1023 46.7511 79.7762 48.523C79.7762 48.523 62.9819 96.3261 97.2019 100" stroke="black" stroke-width="1.5" stroke-linecap="round" stroke-linejoin="round"/>
</svg>
