<svg width="478" height="359" viewBox="0 0 478 359" fill="none" xmlns="http://www.w3.org/2000/svg">
<path d="M433.188 0C457.928 0 478 20.0909 478 44.875C478 58.9919 471.371 72.2674 460.075 80.775L256.925 233.35C246.282 241.297 231.718 241.297 221.075 233.35L17.925 80.775C6.64065 72.2674 0 58.9919 0 44.875C0 20.0909 20.0629 0 44.8125 0H433.188ZM203.15 257.283C224.436 273.27 253.564 273.27 274.85 257.283L478 104.708V299.167C478 332.168 451.206 359 418.25 359H59.75C26.7475 359 0 332.168 0 299.167V104.708L203.15 257.283Z" fill="#2B2D42"/>
</svg>
