<svg width="219" height="295" viewBox="0 0 219 295" fill="none" xmlns="http://www.w3.org/2000/svg">
<path d="M191.954 244.849C178.742 159.529 101.378 122.513 101.378 122.513L69.1556 139.16C68.0216 139.16 75.1964 169.724 75.1964 169.724L122.925 190.867L167.137 259.224L200.762 247.601L191.954 244.849Z" fill="#EDEEEF"/>
<path d="M125.622 138.008C116.661 133.659 106.651 131.937 96.7512 133.041C86.8516 134.145 77.4671 138.03 69.6841 144.247C71.2622 152.934 75.2074 169.735 75.2074 169.735L122.936 190.878L142.02 220.388C149.683 211.743 154.293 200.818 155.141 189.297C155.989 177.775 153.028 166.293 146.714 156.618C140.147 149.909 133.097 143.689 125.622 138.008Z" fill="black"/>
<path d="M150.351 172.245C148.798 128.609 96.7687 121.625 96.7687 121.625L36.5403 106.824C36.5403 106.824 26.6093 172.612 102.575 173.713L66.649 244.849L99.679 259.224L96.7723 249.253C96.7723 249.253 151.29 198.302 150.351 172.245Z" fill="#EDEEEF"/>
<path d="M36.5403 106.824C36.5403 106.824 26.6093 172.612 102.575 173.713L66.649 244.849" stroke="black" stroke-width="2" stroke-miterlimit="10"/>
<path d="M36.5403 64.3106V106.824L96.7613 121.625V74.282C96.7609 66.1243 94.0256 58.2022 88.9926 51.782C83.9596 45.3619 76.9196 40.8144 68.9978 38.8665C65.1393 37.919 61.1158 37.8612 57.2317 38.6974C53.3475 39.5337 49.7044 41.2421 46.5777 43.6936C43.4509 46.145 40.9225 49.2753 39.1836 52.8477C37.4447 56.4201 36.5408 60.3412 36.5403 64.3143V64.3106Z" fill="#D90429"/>
<path d="M54.2994 15.6721V22.4543C54.2971 25.003 55.1506 27.4786 56.7231 29.4844C58.2956 31.4901 60.496 32.9097 62.9716 33.5157L73.7688 36.1691V9.64965L64.792 7.44765C63.5445 7.14171 62.2438 7.12334 60.9883 7.39392C59.7327 7.66451 58.555 8.21697 57.5443 9.00955C56.5336 9.80214 55.7163 10.8141 55.1541 11.969C54.592 13.1238 54.2997 14.3914 54.2994 15.6758V15.6721Z" fill="#EDEEEF"/>
<path d="M54.2994 22.4543C54.2971 25.003 55.1506 27.4786 56.7231 29.4844C58.2956 31.4901 60.496 32.9097 62.9716 33.5157L73.7688 36.1691" stroke="black" stroke-width="2" stroke-miterlimit="10"/>
<path d="M65.2984 21.1074C65.5862 21.1074 65.8196 20.8741 65.8196 20.5863C65.8196 20.2984 65.5862 20.0651 65.2984 20.0651C65.0106 20.0651 64.7773 20.2984 64.7773 20.5863C64.7773 20.8741 65.0106 21.1074 65.2984 21.1074Z" fill="black"/>
<path d="M57.3015 21.1074C57.5893 21.1074 57.8226 20.8741 57.8226 20.5863C57.8226 20.2984 57.5893 20.0651 57.3015 20.0651C57.0137 20.0651 56.7804 20.2984 56.7804 20.5863C56.7804 20.8741 57.0137 21.1074 57.3015 21.1074Z" fill="black"/>
<path d="M59.6466 23.6911V15.6721H55.628" stroke="black" stroke-width="2" stroke-miterlimit="10"/>
<path d="M66.2783 15.6721H62.2597" stroke="black" stroke-width="2" stroke-miterlimit="10"/>
<path d="M72.4843 19.7825V22.5681C73.2065 22.5681 73.8991 22.2812 74.4098 21.7705C74.9205 21.2598 75.2074 20.5671 75.2074 19.8449C75.2074 19.7605 75.2074 19.6798 75.2074 19.599C75.0423 17.9072 72.4843 18.0833 72.4843 19.7825Z" fill="#EDEEEF"/>
<path d="M72.4843 22.5681C73.2065 22.5681 73.8991 22.2812 74.4098 21.7705C74.9205 21.2598 75.2074 20.5671 75.2074 19.8449" stroke="black" stroke-width="2" stroke-miterlimit="10"/>
<path d="M61.8449 24.6306C62.1833 24.9672 62.6412 25.1562 63.1184 25.1562C63.5957 25.1562 64.0536 24.9672 64.3919 24.6306" stroke="#D90429" stroke-width="2" stroke-miterlimit="10"/>
<path d="M59.6466 23.6984L61.4045 24.1315" stroke="black" stroke-width="2" stroke-miterlimit="10" stroke-linecap="round"/>
<path d="M53.8884 18.7146C53.8884 18.7146 58.7291 16.1933 59.5475 11.9324C59.5519 11.9 59.5673 11.8701 59.591 11.8476C59.6148 11.8251 59.6455 11.8115 59.6781 11.8089C59.7107 11.8063 59.7432 11.815 59.7702 11.8334C59.7972 11.8519 59.817 11.8791 59.8264 11.9104C60.421 13.7454 62.8799 18.6191 72.4843 19.7825" stroke="black" stroke-width="2" stroke-miterlimit="10"/>
<path d="M54.2994 21.2065C54.2994 21.2065 49.4844 19.0816 50.3395 13.4555C51.1946 7.82934 67.7096 -7.50392 78.8444 7.1981C89.9792 21.9001 108.388 49.671 108.388 49.671L96.2402 51.5354C93.4607 51.9617 90.6219 51.7822 87.9183 51.0091C85.2147 50.236 82.7101 48.8876 80.5762 47.0562C78.4424 45.2249 76.7296 42.9539 75.5552 40.3989C74.3809 37.8439 73.7727 35.0652 73.7724 32.2532V24.6306" stroke="black" stroke-width="2" stroke-miterlimit="10"/>
<path d="M211.761 96.603H115.937L122.514 39.1161H218.334L211.761 96.603Z" fill="#EDEEEF"/>
<path d="M207.959 91.6998H112.135L118.708 34.213H214.532L207.959 91.6998Z" stroke="black" stroke-width="2" stroke-miterlimit="10"/>
<path d="M166.601 113.492L169.093 91.6998H153.767L151.276 113.492H166.601Z" fill="black"/>
<path d="M84.7861 113.492H215.915" stroke="black" stroke-width="2" stroke-miterlimit="10"/>
<path d="M44.6693 45.223C44.6693 45.223 19.8455 65.6098 13.6065 98.5591C7.36746 131.508 56.8391 123.588 80.4005 113.892" stroke="black" stroke-width="2" stroke-miterlimit="10"/>
<path d="M39.847 96.603C39.847 96.603 95.8145 86.694 99.668 111.217" stroke="black" stroke-width="2" stroke-miterlimit="10"/>
<path d="M82.2134 45.223C82.2134 45.223 99.7781 63.3491 104.41 96.603C104.41 96.603 122.224 97.2159 122.936 111.217" stroke="black" stroke-width="2" stroke-miterlimit="10"/>
<path d="M34.3089 55.9651C34.3089 55.9651 26.323 39.3913 19.717 53.7043C13.111 68.0173 -15.7535 162.336 14.7075 178.117C45.1685 193.898 89.7113 185.23 89.7113 185.23" stroke="black" stroke-width="2" stroke-miterlimit="10"/>
<path d="M56.05 187.604V293.825H19.717" stroke="black" stroke-width="2" stroke-miterlimit="10"/>
</svg>
