<?xml version="1.0" encoding="UTF-8"?>
<svg xmlns="http://www.w3.org/2000/svg" xmlns:xlink="http://www.w3.org/1999/xlink" viewBox="0 0 60 60" width="60px" height="60px">
<g id="surface99875069">
<path style=" stroke:none;fill-rule:nonzero;fill:rgb(84.313726%,1.568628%,15.294118%);fill-opacity:1;" d="M 30 6 C 16.746094 6 6 16.746094 6 30 C 6 34.503906 7.265625 38.699219 9.421875 42.300781 L 6.214844 54 L 18.164062 50.863281 C 21.660156 52.851562 25.691406 54 30 54 C 43.253906 54 54 43.253906 54 30 C 54 16.746094 43.253906 6 30 6 Z M 21.785156 18.804688 C 22.175781 18.804688 22.574219 18.800781 22.921875 18.820312 C 23.351562 18.832031 23.816406 18.863281 24.261719 19.847656 C 24.792969 21.019531 25.945312 23.960938 26.09375 24.257812 C 26.242188 24.554688 26.347656 24.90625 26.140625 25.296875 C 25.945312 25.695312 25.84375 25.9375 25.554688 26.292969 C 25.257812 26.636719 24.929688 27.0625 24.660156 27.324219 C 24.363281 27.621094 24.054688 27.949219 24.398438 28.542969 C 24.742188 29.136719 25.9375 31.085938 27.703125 32.65625 C 29.972656 34.683594 31.886719 35.308594 32.484375 35.605469 C 33.082031 35.902344 33.425781 35.855469 33.769531 35.457031 C 34.125 35.066406 35.257812 33.730469 35.65625 33.132812 C 36.046875 32.535156 36.445312 32.640625 36.984375 32.835938 C 37.53125 33.03125 40.453125 34.472656 41.050781 34.769531 C 41.648438 35.066406 42.039062 35.214844 42.1875 35.457031 C 42.339844 35.707031 42.339844 36.898438 41.847656 38.285156 C 41.355469 39.671875 38.929688 41.011719 37.839844 41.105469 C 36.742188 41.207031 35.71875 41.597656 30.703125 39.625 C 24.65625 37.242188 20.839844 31.046875 20.542969 30.648438 C 20.246094 30.257812 18.121094 27.429688 18.121094 24.507812 C 18.121094 21.578125 19.65625 20.144531 20.195312 19.546875 C 20.742188 18.949219 21.386719 18.804688 21.785156 18.804688 Z M 21.785156 18.804688 "/>
</g>
</svg>
