<svg width="373" height="205" viewBox="0 0 373 205" fill="none" xmlns="http://www.w3.org/2000/svg">
<path d="M46.98 159.26C36.42 159.26 27.66 156.44 20.7 150.8C13.14 144.68 9.36 136.52 9.36 126.32C9.36 118.76 11.4 111.8 15.48 105.44C19.56 99.08 25.08 94.52 32.04 91.76C31.2 88.76 30.78 85.34 30.78 81.5C30.78 71.42 33.72 62.18 39.6 53.78C45.72 44.9 53.46 38.96 62.82 35.96C72.42 32.6 82.02 30.92 91.62 30.92C97.5 30.92 103.74 31.7 110.34 33.26C116.94 34.82 123.9 37.34 131.22 40.82C137.46 43.7 143.64 46.7 149.76 49.82C155.88 52.82 162.06 55.88 168.3 59C174.66 55.04 180.6 53.06 186.12 53.06C196.08 53.06 201.06 56.3 201.06 62.78C201.06 67.1 198.66 69.26 193.86 69.26C190.74 69.26 184.86 67.46 176.22 63.86C170.1 71.54 165 82.28 160.92 96.08C160.44 97.64 159.84 99.5 159.12 101.66C158.52 103.82 157.74 106.4 156.78 109.4C153.66 118.16 150.24 125.48 146.52 131.36C142.92 137.24 139.2 141.68 135.36 144.68C148.68 137.24 164.76 122.36 183.6 100.04C219.24 57.68 247.92 36.5 269.64 36.5C281.04 36.5 286.74 39.8 286.74 46.4C286.74 48.2 286.08 50.42 284.76 53.06C283.08 55.82 281.52 57.2 280.08 57.2C279.48 57.2 279.18 57.02 279.18 56.66C279.18 56.66 279.36 56.42 279.72 55.94C280.2 55.46 280.8 54.8 281.52 53.96C283.08 52.16 283.86 50.18 283.86 48.02C283.86 43.7 280.86 41.54 274.86 41.54C267.78 41.54 259.86 43.64 251.1 47.84C231.78 57.2 209.22 76.22 183.42 104.9C170.1 119.42 160.92 128.96 155.88 133.52C143.04 144.92 131.76 150.62 122.04 150.62C120.48 150.62 118.86 150.44 117.18 150.08L117 149.9C117 149.66 118.98 148.64 122.94 146.84C123.78 146.36 124.62 145.88 125.46 145.4C126.42 144.8 127.32 144.2 128.16 143.6C130.32 141.92 133.86 136.22 138.78 126.5C140.46 123.14 142.08 119.84 143.64 116.6C145.2 113.36 146.76 110.12 148.32 106.88C150.36 103.04 152.34 99.2 154.26 95.36C156.3 91.52 158.34 87.74 160.38 84.02C162.9 79.46 165.3 75.44 167.58 71.96C169.98 68.36 172.14 65.36 174.06 62.96L169.2 60.8C155.52 69.08 141.36 83.36 126.72 103.64C99.96 140.72 73.38 159.26 46.98 159.26ZM47.16 157.28C58.68 157.28 69.9 153.56 80.82 146.12C84.66 143.48 88.74 140.12 93.06 136.04C97.5 131.96 102.24 127.1 107.28 121.46C109.44 119.06 112.08 116.06 115.2 112.46C118.44 108.86 122.22 104.66 126.54 99.86C129.66 96.26 132.78 92.66 135.9 89.06C139.14 85.46 142.38 81.92 145.62 78.44C149.46 74.24 153.18 70.64 156.78 67.64C160.38 64.52 163.8 61.88 167.04 59.72C158.16 55.76 150.66 52.52 144.54 50C138.42 47.36 133.68 45.44 130.32 44.24C123.24 41.84 116.46 40.04 109.98 38.84C103.62 37.52 97.5 36.86 91.62 36.86C81.9 36.86 72.96 38.54 64.8 41.9C56.28 45.26 49.2 50.6 43.56 57.92C37.68 65.6 34.74 73.94 34.74 82.94C34.74 84.26 34.8 85.58 34.92 86.9C35.16 88.1 35.4 89.3 35.64 90.5C38.52 89.78 41.4 89.42 44.28 89.42C45.6 89.42 46.8 89.48 47.88 89.6C49.08 89.72 50.28 89.9 51.48 90.14C57.12 91.22 61.62 94.1 64.98 98.78C68.46 103.58 70.02 108.74 69.66 114.26C79.38 114.14 88.2 111.26 96.12 105.62C104.76 99.26 109.08 91.46 109.08 82.22C109.08 75.26 106.62 69.32 101.7 64.4C97.14 59.48 91.26 57.02 84.06 57.02C78.66 57.02 73.68 58.76 69.12 62.24C64.44 66.2 62.1 70.82 62.1 76.1C62.1 80.9 64.2 84.38 68.4 86.54V86.72C69.24 86.84 69.66 87.44 69.66 88.52C69.66 88.52 69.6 88.58 69.48 88.7C69.48 88.7 69.42 88.7 69.3 88.7C68.94 88.7 68.28 88.4 67.32 87.8C62.64 84.68 60.3 80.54 60.3 75.38C60.3 69.38 62.88 64.34 68.04 60.26C72.6 56.42 78.06 54.5 84.42 54.5C92.1 54.5 98.58 57.08 103.86 62.24C109.38 67.52 112.14 73.82 112.14 81.14C112.14 91.7 107.52 100.34 98.28 107.06C90 113.3 80.4 116.36 69.48 116.24C68.64 122.24 65.28 127.46 59.4 131.9C56.76 133.82 53.94 135.32 50.94 136.4C47.94 137.36 44.76 137.84 41.4 137.84C38.64 137.84 37.26 137.48 37.26 136.76C37.26 136.28 38.52 136.04 41.04 136.04C41.76 136.04 42.6 135.98 43.56 135.86C44.64 135.74 45.78 135.56 46.98 135.32C56.82 133.16 63 126.74 65.52 116.06C48.24 114.62 37.32 107.3 32.76 94.1C26.4 96.38 21.3 100.46 17.46 106.34C13.98 111.98 12.24 118.34 12.24 125.42C12.24 127.22 12.36 129.02 12.6 130.82C12.84 132.5 13.2 134.24 13.68 136.04C15.48 142.76 19.8 148.1 26.64 152.06C33 155.54 39.84 157.28 47.16 157.28ZM194.94 157.46C189.78 157.46 187.2 153.02 187.2 144.14C187.2 133.46 189.9 122.54 195.3 111.38C197.46 107.06 200.82 101.9 205.38 95.9C207.18 93.62 209.1 91.34 211.14 89.06C213.18 86.66 215.4 84.14 217.8 81.5C219.12 79.94 220.92 78.02 223.2 75.74C225.48 73.34 228.18 70.52 231.3 67.28C239.46 59.12 243.96 55.04 244.8 55.04C245.04 55.04 244.86 55.4 244.26 56.12C244.14 56.36 243.78 56.78 243.18 57.38C242.7 57.98 241.98 58.76 241.02 59.72C235.86 65.24 230.82 71.72 225.9 79.16C222.66 83.96 219.48 89.24 216.36 95C213.24 100.64 210.12 106.76 207 113.36C203.28 121.64 200.4 128.84 198.36 134.96C196.44 140.96 195.48 145.94 195.48 149.9C195.48 153.26 196.5 154.94 198.54 154.94C199.62 154.94 201.84 153.92 205.2 151.88C208.32 149.84 210.36 148.22 211.32 147.02C211.68 146.54 212.16 146.3 212.76 146.3C213 146.54 213.12 146.72 213.12 146.84C213.12 146.96 213 147.14 212.76 147.38C206.28 154.1 200.34 157.46 194.94 157.46ZM192.42 67.1C195.42 67.1 196.92 65.6 196.92 62.6C196.92 60.08 195.72 58.1 193.32 56.66C191.16 55.58 188.76 55.04 186.12 55.04C181.56 55.04 176.4 56.66 170.64 59.9C171.48 60.26 172.26 60.62 172.98 60.98C173.7 61.22 174.42 61.46 175.14 61.7C177.78 58.94 179.88 57.56 181.44 57.56C181.68 57.56 181.8 57.62 181.8 57.74C181.2 58.46 180.54 59.24 179.82 60.08C179.1 60.8 178.26 61.64 177.3 62.6C181.38 64.04 184.68 65.18 187.2 66.02C189.72 66.74 191.46 67.1 192.42 67.1ZM65.88 114.08C66 113.6 66.06 112.82 66.06 111.74C66.06 107.66 64.92 103.7 62.64 99.86C60.12 96.14 56.82 93.8 52.74 92.84C51.42 92.6 50.04 92.42 48.6 92.3C47.16 92.06 45.78 91.94 44.46 91.94C41.58 91.94 38.88 92.3 36.36 93.02C38.4 99.26 42.18 104.24 47.7 107.96C52.86 111.44 58.92 113.48 65.88 114.08ZM253.898 204.26C243.218 204.26 237.878 200.54 237.878 193.1C237.878 183.5 243.938 174.38 256.058 165.74C262.658 161.18 269.558 157.52 276.758 154.76C283.958 152 291.578 150.26 299.618 149.54L303.578 141.8C299.138 143.48 294.758 144.8 290.438 145.76C286.118 146.6 281.858 147.02 277.658 147.02C265.538 147.02 255.818 143.66 248.498 136.94C241.178 129.98 237.518 120.44 237.518 108.32C237.518 89.72 245.078 72.86 260.198 57.74C253.718 52.46 250.478 46.94 250.478 41.18C250.478 36.98 252.158 33.14 255.518 29.66C259.238 25.58 266.378 23.54 276.938 23.54C283.538 23.54 288.878 24.68 292.958 26.96C293.678 26.96 294.038 27.26 294.038 27.86C294.038 28.46 293.558 28.76 292.598 28.76C291.758 28.76 290.618 28.52 289.178 28.04C285.578 26.6 281.258 25.88 276.218 25.88C266.498 25.88 260.378 27.8 257.858 31.64C255.698 34.88 254.618 38.3 254.618 41.9C254.618 46.94 257.018 51.62 261.818 55.94C279.338 39.14 300.158 30.74 324.278 30.74C344.558 30.74 354.698 35.54 354.698 45.14C354.698 46.94 354.458 48.74 353.978 50.54C353.018 53.42 350.918 56.18 347.678 58.82C337.838 66.98 323.558 71.06 304.838 71.06C290.678 71.06 278.438 68.36 268.118 62.96C261.758 70.16 256.658 78.38 252.818 87.62C248.258 98.06 245.978 107.48 245.978 115.88C245.978 134.36 256.538 143.6 277.658 143.6C287.378 143.6 296.618 141.86 305.378 138.38C309.218 130.7 312.518 124.28 315.278 119.12C318.038 113.84 320.258 109.88 321.938 107.24C331.298 91.52 338.618 83.66 343.898 83.66C348.098 83.66 350.198 86 350.198 90.68C350.198 97.04 345.938 105.92 337.418 117.32C334.898 120.68 331.838 123.98 328.238 127.22C324.638 130.34 320.378 133.28 315.458 136.04L311.138 149.36C320.258 150.32 324.818 152.66 324.818 156.38C324.818 157.22 324.518 157.64 323.918 157.64C323.438 157.64 322.598 157.22 321.398 156.38C318.518 154.1 314.798 152.66 310.238 152.06C305.678 165.5 301.238 175.16 296.918 181.04C285.638 196.52 271.298 204.26 253.898 204.26ZM305.018 69.44C308.138 69.44 311.138 69.32 314.018 69.08C317.018 68.72 319.838 68.24 322.478 67.64C328.718 66.44 334.358 64.46 339.398 61.7C346.478 57.86 350.258 53.66 350.738 49.1C350.858 48.74 350.918 48.38 350.918 48.02C350.918 47.66 350.918 47.3 350.918 46.94C350.918 37.7 344.738 33.08 332.378 33.08C320.498 33.08 309.038 35.6 297.998 40.64C286.958 45.56 277.478 52.52 269.558 61.52C279.158 66.8 290.978 69.44 305.018 69.44ZM316.538 132.62C320.138 130.22 323.558 127.58 326.798 124.7C330.038 121.82 333.038 118.64 335.798 115.16C342.758 106.76 346.238 99.08 346.238 92.12C346.238 88.64 345.218 86.9 343.178 86.9C342.698 86.9 342.218 87.02 341.738 87.26C341.258 87.5 340.718 87.8 340.118 88.16C331.958 93.8 324.098 108.62 316.538 132.62ZM252.818 201.56C262.898 201.56 273.878 192.68 285.758 174.92C287.078 172.88 288.758 169.94 290.798 166.1C292.958 162.38 295.418 157.82 298.178 152.42C282.698 154.46 269.318 159.62 258.038 167.9C246.998 175.94 241.478 183.74 241.478 191.3C241.478 194.54 242.558 197.06 244.718 198.86C246.878 200.66 249.578 201.56 252.818 201.56Z" fill="#2B2D42"/>
<rect x="15" y="88" width="334" height="25" fill="#EDF2F4"/>
<path d="M68.4333 105V94.5H69.3483L74.1483 102.69H73.6683L78.4233 94.5H79.3383V105H78.2733V96.165H78.5283L74.1483 103.665H73.6233L69.2133 96.165H69.4983V105H68.4333ZM89.8095 105V94.5H90.9195V105H89.8095ZM104.281 105.09C103.501 105.09 102.751 104.965 102.031 104.715C101.321 104.455 100.771 104.125 100.381 103.725L100.816 102.87C101.186 103.23 101.681 103.535 102.301 103.785C102.931 104.025 103.591 104.145 104.281 104.145C104.941 104.145 105.476 104.065 105.886 103.905C106.306 103.735 106.611 103.51 106.801 103.23C107.001 102.95 107.101 102.64 107.101 102.3C107.101 101.89 106.981 101.56 106.741 101.31C106.511 101.06 106.206 100.865 105.826 100.725C105.446 100.575 105.026 100.445 104.566 100.335C104.106 100.225 103.646 100.11 103.186 99.99C102.726 99.86 102.301 99.69 101.911 99.48C101.531 99.27 101.221 98.995 100.981 98.655C100.751 98.305 100.636 97.85 100.636 97.29C100.636 96.77 100.771 96.295 101.041 95.865C101.321 95.425 101.746 95.075 102.316 94.815C102.886 94.545 103.616 94.41 104.506 94.41C105.096 94.41 105.681 94.495 106.261 94.665C106.841 94.825 107.341 95.05 107.761 95.34L107.386 96.225C106.936 95.925 106.456 95.705 105.946 95.565C105.446 95.425 104.961 95.355 104.491 95.355C103.861 95.355 103.341 95.44 102.931 95.61C102.521 95.78 102.216 96.01 102.016 96.3C101.826 96.58 101.731 96.9 101.731 97.26C101.731 97.67 101.846 98 102.076 98.25C102.316 98.5 102.626 98.695 103.006 98.835C103.396 98.975 103.821 99.1 104.281 99.21C104.741 99.32 105.196 99.44 105.646 99.57C106.106 99.7 106.526 99.87 106.906 100.08C107.296 100.28 107.606 100.55 107.836 100.89C108.076 101.23 108.196 101.675 108.196 102.225C108.196 102.735 108.056 103.21 107.776 103.65C107.496 104.08 107.066 104.43 106.486 104.7C105.916 104.96 105.181 105.09 104.281 105.09ZM117.664 105V94.5H122.194C123.364 94.5 124.269 94.735 124.909 95.205C125.559 95.675 125.884 96.34 125.884 97.2C125.884 97.77 125.749 98.25 125.479 98.64C125.219 99.03 124.859 99.325 124.399 99.525C123.949 99.725 123.454 99.825 122.914 99.825L123.169 99.465C123.839 99.465 124.414 99.57 124.894 99.78C125.384 99.98 125.764 100.285 126.034 100.695C126.304 101.095 126.439 101.595 126.439 102.195C126.439 103.085 126.109 103.775 125.449 104.265C124.799 104.755 123.814 105 122.494 105H117.664ZM118.774 104.085H122.479C123.399 104.085 124.104 103.93 124.594 103.62C125.084 103.3 125.329 102.795 125.329 102.105C125.329 101.425 125.084 100.93 124.594 100.62C124.104 100.3 123.399 100.14 122.479 100.14H118.654V99.225H122.119C122.959 99.225 123.609 99.065 124.069 98.745C124.539 98.425 124.774 97.95 124.774 97.32C124.774 96.68 124.539 96.205 124.069 95.895C123.609 95.575 122.959 95.415 122.119 95.415H118.774V104.085ZM134.343 105L139.143 94.5H140.238L145.038 105H143.868L139.458 95.145H139.908L135.498 105H134.343ZM136.233 102.195L136.563 101.295H142.668L142.998 102.195H136.233ZM161.505 94.5H162.6V105H161.505V94.5ZM154.935 105H153.825V94.5H154.935V105ZM161.61 100.155H154.815V99.18H161.61V100.155ZM188.658 105.09C187.858 105.09 187.118 104.96 186.438 104.7C185.768 104.43 185.183 104.055 184.683 103.575C184.193 103.095 183.808 102.53 183.528 101.88C183.258 101.23 183.123 100.52 183.123 99.75C183.123 98.98 183.258 98.27 183.528 97.62C183.808 96.97 184.198 96.405 184.698 95.925C185.198 95.445 185.783 95.075 186.453 94.815C187.133 94.545 187.873 94.41 188.673 94.41C189.473 94.41 190.203 94.535 190.863 94.785C191.533 95.035 192.103 95.415 192.573 95.925L191.883 96.63C191.443 96.19 190.958 95.875 190.428 95.685C189.898 95.495 189.328 95.4 188.718 95.4C188.068 95.4 187.468 95.51 186.918 95.73C186.378 95.94 185.903 96.245 185.493 96.645C185.093 97.035 184.778 97.495 184.548 98.025C184.328 98.545 184.218 99.12 184.218 99.75C184.218 100.37 184.328 100.945 184.548 101.475C184.778 102.005 185.093 102.47 185.493 102.87C185.903 103.26 186.378 103.565 186.918 103.785C187.468 103.995 188.063 104.1 188.703 104.1C189.303 104.1 189.868 104.01 190.398 103.83C190.938 103.65 191.433 103.345 191.883 102.915L192.513 103.755C192.013 104.195 191.428 104.53 190.758 104.76C190.088 104.98 189.388 105.09 188.658 105.09ZM191.448 103.62V99.75H192.513V103.755L191.448 103.62ZM210.384 94.5H211.479V105H210.384V94.5ZM203.814 105H202.704V94.5H203.814V105ZM210.489 100.155H203.694V99.18H210.489V100.155ZM220.277 105L225.077 94.5H226.172L230.972 105H229.802L225.392 95.145H225.842L221.432 105H220.277ZM222.167 102.195L222.497 101.295H228.602L228.932 102.195H222.167ZM240.749 99.585H246.299V100.545H240.749V99.585ZM240.869 105H239.759V94.5H246.959V95.46H240.869V105ZM257.291 99.585H262.841V100.545H257.291V99.585ZM257.411 105H256.301V94.5H263.501V95.46H257.411V105ZM270.665 105L275.465 94.5H276.56L281.36 105H280.19L275.78 95.145H276.23L271.82 105H270.665ZM272.555 102.195L272.885 101.295H278.99L279.32 102.195H272.555ZM290.147 105V94.5H294.077C294.967 94.5 295.732 94.645 296.372 94.935C297.012 95.215 297.502 95.625 297.842 96.165C298.192 96.695 298.367 97.34 298.367 98.1C298.367 98.84 298.192 99.48 297.842 100.02C297.502 100.55 297.012 100.96 296.372 101.25C295.732 101.53 294.967 101.67 294.077 101.67H290.762L291.257 101.16V105H290.147ZM297.317 105L294.617 101.19H295.817L298.532 105H297.317ZM291.257 101.25L290.762 100.725H294.047C295.097 100.725 295.892 100.495 296.432 100.035C296.982 99.575 297.257 98.93 297.257 98.1C297.257 97.26 296.982 96.61 296.432 96.15C295.892 95.69 295.097 95.46 294.047 95.46H290.762L291.257 94.935V101.25Z" fill="#2B2D42"/>
</svg>
