<svg width="16" height="15" viewBox="0 0 16 15" fill="none" xmlns="http://www.w3.org/2000/svg">
<path d="M15.988 1.07969L13.9879 13.241C13.9411 13.5262 13.7575 13.7748 13.4889 13.9163C13.3375 13.996 13.1679 14.0363 12.9988 14.0363C12.868 14.0363 12.7389 14.0124 12.6148 13.9639L8.78338 12.4668L7.19395 14.7019C7.07207 14.8975 6.86894 15 6.65018 15C6.29079 15 6.00016 14.7275 6.00016 14.3906V11.5728C6.00016 11.3644 6.07429 11.1618 6.21085 10.9974L13.0004 2.81233L3.82196 10.5556L0.615285 9.30168C0.263648 9.16398 0.025343 8.85343 0.00190465 8.46964C-0.0215337 8.08584 0.172817 7.77471 0.503797 7.59746L14.5043 0.123723C14.8384 -0.0552537 15.2506 -0.0387886 15.5668 0.164915C15.8831 0.368619 16.0474 0.724025 15.988 1.07969Z" fill="#D90429"/>
</svg>
